<svg width="28" height="28" viewBox="0 0 28 28" fill="none" xmlns="http://www.w3.org/2000/svg">
<path d="M8.16667 19.0167C10.7333 19.0167 12.8333 16.8817 12.8333 14.2917C12.8333 12.9383 12.1683 11.655 10.8383 10.57C9.50833 9.48502 8.505 7.87502 8.16667 6.18335C7.82833 7.87502 6.83667 9.49668 5.495 10.57C4.15333 11.6433 3.5 12.95 3.5 14.2917C3.5 16.8817 5.6 19.0167 8.16667 19.0167Z" stroke="#F5821F" stroke-width="2.33333" stroke-linecap="round" stroke-linejoin="round"/>
<path d="M14.6538 7.7001C15.4562 6.41808 16.025 5.00399 16.3338 3.52344C16.9171 6.4401 18.6671 9.2401 21.0005 11.1068C23.3338 12.9734 24.5005 15.1901 24.5005 17.5234C24.5071 19.1361 24.0348 20.7145 23.1434 22.0584C22.252 23.4023 20.9816 24.4513 19.4933 25.0723C18.005 25.6934 16.3658 25.8586 14.7835 25.5469C13.2012 25.2353 11.7471 24.4608 10.6055 23.3218" stroke="#F5821F" stroke-width="2.33333" stroke-linecap="round" stroke-linejoin="round"/>
</svg>
